<svg xmlns="http://www.w3.org/2000/svg" viewBox="0 0 1000 1000">
  <path d="M653.1 500c0 84.6-68.5 153.1-153.1 153.1S346.9 584.6 346.9 500c0-8.7.9-17.3 2.5-25.5h-53.5v204c0 14.2 11.5 25.7 25.7 25.7h357c14.1 0 25.6-11.5 25.6-25.7v-204h-53.5c1.5 8.2 2.4 16.8 2.4 25.5zM500 602.1c56.4 0 102.1-45.7 102.1-102.1 0-56.4-45.7-102.1-102.1-102.1-56.4 0-102.1 45.7-102.1 102.1 0 56.4 45.7 102.1 102.1 102.1zm122.5-209.3h61.2c8.5 0 15.4-6.9 15.4-15.3v-61.2c0-8.5-6.9-15.4-15.4-15.4h-61.2c-8.5 0-15.4 6.9-15.4 15.4v61.2c.1 8.4 7 15.3 15.4 15.3zM500 10C229.4 10 10 229.4 10 500s219.4 490 490 490 490-219.4 490-490S770.6 10 500 10zm255.2 688.5c0 31.2-25.5 56.7-56.7 56.7h-397c-31.2 0-56.7-25.5-56.7-56.7v-397c0-31.2 25.5-56.7 56.7-56.7h397c31.2 0 56.7 25.5 56.7 56.7v397z"/>
</svg>