<svg xmlns="http://www.w3.org/2000/svg" width="600" height="976" fill="#FFF">
  <path d="M191.47813 25.44299c.86449.35266 2.03502 1.110473 2.54454 1.616699 1.4773 1.417114 3.61441 2.679691 4.57926 2.676517.50781-.001709 1.52157-.563602 2.28097-1.276981 1.56958-1.478028 1.92469-1.580689 1.92823-.514283.00122.406373.46008.963379 1.01977 1.266236.5596.30286 1.01847.859989 1.01981 1.266239.00329 1.015625 1.83142.958863 2.23449-.007324.15076-.45752.96229-.764893 2.07947-.768555 1.11731-.003662 1.93079.29834 2.08472.754882.20447.40564.91651.75879 1.72901.756104.76171-.002564 1.98205.450562 2.69482 1.006716.71277.556395 1.83154 1.009764 2.54248 1.007445 1.92981-.006348 2.89624.498291 2.89966 1.513915.00378 1.16797 1.38562 4.413697 2.04712 4.81775.25439.15149.51074.86157.51282 1.52173.00219.660276.56384 1.572508 1.22582 2.128904 1.12.85962 1.27418 1.417726 1.80371 8.017946.31775 3.95996.58692 8.631224.59281 10.408576.05762 2.081909.31665 3.655274.77563 4.263184 1.12195 1.41821 1.10437 11.57495.04102 12.49255-1.01282.86658-1.09058 8.12891-.07495 8.12561.35546-.00122 1.42407.65552 2.3407 1.41419 1.62939 1.31494 1.73217 1.670286 2.1007 5.680784.63037 6.396736-.16308 12.188606-2.23108 16.511971-2.1184 4.425045-3.3833 5.851195-5.31298 5.857545-1.42188.00464-1.47254.05554-1.71546 3.40796-.58653 7.010145-1.48436 11.93898-2.14378 12.19508-.35486.15344-.65711.91626-.65466 1.67798.00256.76184-.34986 1.677-.75501 2.03381-.40503.35681-.75854.96741-.75732 1.32288.00122.40625-.45411.96631-1.01148 1.32361-.55737.35742-1.01282.8667-1.01196 1.1206.00085.25391-.35315.71216-.80921 1.01831-.60778.45899-.80651 1.83081-.84094 6.80774-.08362 5.48487.02088 6.34778.78394 6.75159.50879.30298.91662.80945.91784 1.16492.00306.91418 2.193 2.83679 3.20862 2.83337.5586-.00183.86463.40344.86731 1.21594.00562 1.7267.92139 2.23147 3.96865 2.27236 1.52343-.00501 2.99682.19323 3.30236.44616.35632.25269 2.48987.49964 4.82618.54273 3.0979.04065 4.67297.28942 6.0465 1.04663 1.06836.55505 2.23792 1.0083 2.59339 1.00708.35547-.0011.76282.35315.9165.75891.20447.40552.86585.75879 1.52612.75671.71094-.00231 1.3722.35096 1.52588.75672.20447.40552.76429.75915 1.2721.75757.50781-.00171.96594.30151.96728.70776.00135.40625.66333.96277 1.52759 1.26465.81336.25122 1.52588.75671 1.52673 1.01062.00098.30469.30652.55762.61121.55652.81262-.00257 2.95276 2.22473 2.95532 2.98657.00098.30468.45887.55713 1.01746.5553.55872-.00183 1.01686.35217 1.01819.75842.00134.40625.45959.76013 1.01819.7583.55858-.00183 1.01672.35217 1.01806.75842.00135.40625.35792.76062.76416.75928.40626-.00134 1.27234.80847 1.88489 1.77124.66321.91187 1.68225 1.97498 2.29247 2.22693.66114.30249 1.17067.75794 1.17164 1.06262.00086.25391.35718.50672.76343.50537.40625-.00134.76283.35291.76416.75916.00134.40625.35794.76064.76419.75929.40625-.00134.76258.25135.76343.50525.00097.30469.40857.70972.86621.86047 1.27112.45289 3.66344 2.17176 5.34474 3.79126.76427.81007 1.62962 1.41663 1.9343 1.41565.25392-.00085.50843.20142.50917.40454.00085.25391.51135 1.06484 1.17383 1.77358.81567.96216 1.6295 1.36572 2.79748 1.36194 1.01575-.0033 1.77857.29883 1.93237.75549.20472.5072 1.01807.75842 2.43995.75379 1.1681-.00391 2.59118.34692 3.15112.75134.50915.40454 1.88148.75561 2.99866.75195 2.79309-.00928 4.31822.49365 4.32092 1.30615.00183.5586 1.32263.70667 6.60415.68934 5.43372-.01783 6.70375.13037 6.90882.73913.20447.40552.7135.75927 1.17053.75781.45715-.00146 1.32153.3512 1.93225.75537.76355.55616 2.59265.80408 5.63989.89563 4.5199.08667 4.5199.08667 5.98719-1.59387.96142-1.06958 1.92444-1.63135 2.78772-1.63415.76185-.00257 1.47155-.36048 1.67335-.76734.151-.40674.60692-.76379 1.06395-.76526.45703-.00146 1.16528-.81628 1.56835-1.78247.4032-.96618.95912-1.78064 1.21302-1.78149.30468-.00098.50672-.35718.50538-.76343-.00135-.40625.453-1.22021 1.00976-1.78065.55676-.56043 1.01111-1.37452 1.00977-1.78077-.00135-.40625.35302-.76294.75939-.76428.40625-.00134.76075-.30713.7594-.71338-.00134-.40625.45423-.86475.96131-1.06958.5581-.15417 1.11523-.61303 1.26623-1.01977.151-.40686.70838-.76416 1.26709-.766.50782-.0017 1.06531-.359 1.26709-.76586.151-.40686.75922-.76428 1.31781-.76612.5586-.00182 1.01475-.25722 1.01395-.51112-.00104-.30469.6068-.81457 1.36737-1.17248.81146-.30738 1.9765-1.22535 2.68493-1.98938.65754-.8147 1.51887-1.42688 1.82355-1.42798.35547-.0011.70995-.30701.86097-.71375.151-.40674.96203-.86645 1.8247-1.07239.86261-.20605 1.57208-.6654 1.57074-1.07165-.00134-.40625.20081-.71167.5055-.71265.91406-.00292 2.53247-2.03955 2.5288-3.15686-.00451-1.37109 4.95594-6.36413 6.83338-6.82727 1.42071-.36023 5.3197-3.82629 5.31666-4.74036-.001-.30468.30285-.55957.6583-.56066.30476-.0011.91182-.71413 1.31526-1.57875.3526-.86438 1.21314-1.7306 1.87244-1.98658.65936-.2561 1.2165-.71496 1.2155-1.01965-.00084-.25391.30305-.50891.7093-.51025.40625-.00134.86127-.61219 1.0617-1.42542.1499-.76221.80726-1.62768 1.41578-1.88354.6084-.30664 1.3172-.96924 1.62006-1.52893.25206-.55945 1.56744-2.08716 2.88348-3.41187 1.36682-1.32483 2.42888-2.64868 2.42786-2.95337-.0008-.25391.35388-.50903.76012-.51038.40626-.00122.76075-.30713.7596-.66259-.0025-.76172 2.2249-2.90198 2.9867-2.90442.30467-.0011.55772-.25586.55675-.56055-.00098-.30469 1.11151-1.73022 2.52881-3.15686 1.36644-1.42639 2.52996-2.80127 2.52929-3.00439-.00067-.20325.35419-.4076.76045-.40882.40624-.00134.76055-.35803.7592-.76428-.00134-.40625.3022-.76269.70844-.76404.40631-.00134 1.36768-1.07092 2.12494-2.44446.75739-1.32299 1.51526-2.4934 1.7179-2.64648 1.87452-1.3772 2.66607-7.778564 1.23529-10.46533-.40894-.81128-.76905-2.231935-.77204-3.146-.00317-.96485-.36323-2.33497-.77179-3.04456-1.37957-2.58533-2.45868-6.441285-2.62188-9.7417-.05676-1.828-.52314-4.67041-.93488-6.34497-.4624-1.623414-.82888-4.974015-.8367-7.360734-.00788-2.386841-.32306-5.585086-.73425-7.1073-.66809-2.384521-.66993-2.943116-.06366-3.910036 1.46551-2.188475 4.51355-1.8938 5.13093.54175.15447.65979.8172 1.41931 1.42754 1.722046.71196.302244 1.37549 1.315794 1.83704 2.685304.35942 1.21777 1.02478 2.78979 1.43316 3.44861.86804 1.41919 2.66532 7.45643 2.67026 8.97987.0047 1.422 2.042 3.24353 3.66705 3.23816 1.26953-.00415 5.47285-3.572754 5.46935-4.63916-.00087-.25392.35393-.45827.76024-.45961.40626-.00134.76074-.30713.7594-.71338-.00134-.40625 1.06109-1.62866 2.32714-2.69922 1.31708-1.02002 3.34137-3.159544 4.555-4.73779 1.2138-1.52747 2.42755-3.05493 2.62988-3.30957.20214-.3053.5556-.915895.75708-1.42432.20148-.50854.86041-.86621 1.62219-.86865.8125-.002686 1.26857-.30884 1.26691-.81665-.00414-1.26965 2.6239-5.13782 3.89142-5.75134.65918-.30689 1.16559-.76563 1.16454-1.070316-.00213-.660154 4.9076-5.602174 5.51698-5.604124.30474-.0011 1.46936-1.02051 2.63324-2.293947 2.32788-2.495973 3.03814-2.701416 5.47968-1.490723 1.57677.756592 1.57708.858155 1.28075 3.398316-.1983 1.473389-.54975 2.693234-.75255 2.795534-.7608.30713-.49922 2.64233.26256 2.63989 1.625-.00537 3.44971-1.07776 4.25739-2.55322 1.06025-1.88245 4.20435-3.263796 6.54181-2.814455 2.03247.348755 3.20794 2.630125 3.21948 6.134155.0061 1.87903.15973 2.23401 1.02301 2.2312 1.5235-.005 3.15795 2.88416 2.91138 5.11951-.19879 1.32092-.85529 2.440306-2.82965 4.3258-2.07558 1.98731-2.58058 2.8523-2.57642 4.12195.00414 1.26953.20862 1.67517.91956 1.67273.50781-.001585 1.16723-.25769 1.42028-.51245.65796-.66223 4.27375 2.423584 4.2777 3.64246.00374 1.1172-2.01256 5.694226-2.72215 6.102795-.4563.255495-3.44379 2.906005-5.01288 4.485355-.25324.203976-.81.7644-1.26557 1.22302-.50634.45874-3.08807 2.955565-5.77087 5.6051-2.7337 2.64966-4.96013 5.09461-4.95893 5.45008.00428 1.320315-3.22647 7.221804-4.03835 7.427615-.50733.154055-1.01265.917355-1.21308 1.73059-.29967 1.524415-5.00073 8.192505-6.06597 8.551515-.30433.10254-1.7727 1.42761-3.29127 2.95618-1.46783 1.47753-3.2915 2.85461-4.05261 3.06018-1.87744.46325-4.66516 2.09753-5.9809 3.52368-.60717.66223-1.46862 1.22363-1.92572 1.2251-.40625.00134-.76056.35803-.7592.7644.00133.40625-.3022.7627-.70845.76404-.35547.0011-.96375.35864-1.31787.76599-.35418.40747-1.01312.76514-1.52098.76672-.96486.00317-3.03517 3.6156-3.02968 5.29138.00288.86329 1.3797 2.58545 4.94618 6.12869.91692.86024 1.68163 1.77186 1.6823 1.97498.0005.15235.45972.81104 1.02033 1.41846 2.14087 2.43066 2.54882 2.93713 2.55029 3.39416.00085.25391.3573.5575.76422.75928.40674.151.76379.60694.76526 1.06397.00134.40625.3072.76074.71344.7594.8125-.00269 1.32391 1.06213 1.32953 2.78869.00353 1.06653-2.06957 3.81556-2.83137 3.818-.10155.00036-.91186.6632-1.7216 1.52929-.80983.81507-2.026 1.63159-2.73628 1.83704-.71045.15466-1.31836.61377-1.31702 1.02002.00135.40625-.25158.71179-.55627.71277-.25391.00085-1.6214 1.12256-2.93707 2.54883-1.31586 1.37536-2.68316 2.54797-3.03864 2.54919-.30468.00098-.55762.30652-.55627.71277.00135.40625-.55579.86511-1.21545 1.01965-.65967.15442-2.73646 1.78626-4.60944 3.62073-1.82216 1.83411-3.54396 3.3125-3.79786 3.31335-.30468.00098-.50665.35718-.5053.76343.00164.50781-.50537.76332-1.52106.76674-.86328.00281-1.52277.20813-1.52174.51282.00148.45703-2.37682 3.05481-2.78307 3.05615-.10156.00024-1.36743 1.1217-2.78473 2.54822-1.41742 1.37585-2.93713 2.54883-3.39416 2.55029-.91407.00305-1.5719.71607-3.74427 4.17651-.85877 1.37391-1.76934 2.44336-2.02331 2.44422-.25391.00085-.45586.35693-.45453.7633.00134.40625-.20063.76234-.45453.76319-.60937.00207-3.08993 2.39697-3.08774 3.05713.0008.2539-.20154.50854-.50622.50952-.25391.00085-.81037.66284-1.26471 1.4768-.40363.81385-1.21333 1.67981-1.82221 1.83411-.60876.2052-2.4823 1.83643-4.2539 3.61963-1.72077 1.78308-3.44257 3.26147-3.74726 3.26245-.30468.00098-.55743.3573-.55609.76355.00128.40625-.30224.7627-.65771.76392-.35546.0011-1.97638 1.276-3.59638 2.80493-1.56933 1.52856-3.08862 2.8031-3.34253 2.80395-.20312.00061-.50665.35718-.70843.76416-.15106.40674-.60694.76368-1.06397.76526-.40625.00122-.76075.30713-.75958.6626.00098.30469-.65723.91626-1.46857 1.27441-.81134.35803-2.07806 1.22571-2.78686 1.8882-.75946.71338-1.57014 1.27466-1.87482 1.27564-.2539.00085-.45599.30615-.45465.7124.00116.35547-.60577 1.11926-1.31507 1.62939-.76006.51038-1.7221 1.37684-2.17767 1.83545-.4046.50916-1.01269.91736-1.31738.91834-.2539.00085-1.36841.81701-2.4317 1.78552-1.06323.96826-2.38105 1.78516-2.93965 1.78699-.5078.00159-.96367.35864-.96233.76489.00186.55863-.55607.76358-2.02865.76834-1.47278.00489-2.03077.20984-2.02892.76844.00133.40637-.4037.76318-.9115.76477-.45692.05236-1.776.46289-2.89137 1.02514-1.11536.56226-2.8407.97425-3.8562 1.02832-1.16797.00379-1.97949.31116-2.18103.76892-.2013.55921-1.0641.76514-3.14612.77198-2.03138.00671-3.19848.2644-3.85668.8761-.65834.56079-2.18055.92126-5.1255 1.08325-2.2848.15979-4.61938.57373-5.17688.93103-.70935.51013-2.99377.7207-8.37672.7384-8.93773.08008-9.6477.38709-9.63402 4.55127.0061 1.87903.21192 2.69092.77124 2.89221.61035.25194.76598 1.26697.77648 4.46631.05995 2.79297.26832 4.41736.77833 5.07581.51001.65844.76904 2.23205.77637 4.46642.00818 2.4884.31787 4.01075 1.0332 5.32874.66406 1.2168 1.02502 2.89136 1.0304 4.51636.00488 1.4728.36645 3.2997.77514 4.0601.45984.8618.771 2.84142.77759 4.8219.00732 2.2345.2655 3.55394.72387 3.95873.40748.35412.8197 2.18103 1.03065 4.56714.2622 2.53833.67422 4.26358 1.13247 4.66836.4076.35413.71608 1.52112.72095 2.99377.00427 1.32032.3656 3.0967.77441 3.85706.40882.81116.77052 2.68909.77515 4.11096.00769 2.33594.16113 2.6908 1.02441 2.68798.86329-.0028 1.01696.3523 1.02442 2.63746.05604 1.5741.36572 3.09656.7738 3.65381.45899.60791.76868 2.13037.77368 3.65393.00562 1.7266.26319 2.84293.77234 3.2476.45826.354.7666 1.4702.77039 2.63818.00353 1.0664.36365 2.4873.77209 3.14612.45924.65856.97437 2.89135 1.13354 4.97302.2107 2.28442.5713 3.85766.9784 4.11023.50867.25219.71594 1.52111.72363 3.85717.00807 2.48828.21509 3.65564.77515 4.11084.56006.4552.76722 1.67334.77625 4.41564.00793 2.4375.2677 4.16334.77783 4.87257.4082.60803.87308 2.99335 1.08389 5.32868.21131 2.48779.62365 4.36535 1.03113 4.71948.45837.40477.7168 1.77502.72472 4.21264.05848 2.33593.31776 3.96009.77687 4.568.51001.65843.76903 2.23193.77685 4.61865.00781 2.38684.26688 3.96021.77713 4.66956.45911.65856.92335 2.84082 1.13465 5.32849.16003 2.33557.62463 4.66995.98193 5.22757.40807.55726.71863 2.28283.72412 3.95861.00647 1.9806.26453 3.24927.7738 3.70459.50965.55689.76783 1.82581.77565 4.21253.00914 2.79309.21483 3.60486 1.0299 4.36389.81494.75916 1.02075 1.57104 1.02966 4.26244.05774 2.13282.31677 3.7062.776 4.3141 1.07108 1.4184 1.10098 10.5594.08829 11.42596-.40515.35681-.90991 1.32337-1.05957 2.13636-.20032.86388-.65468 1.6781-1.06043 1.83178-.40575.15357-.70923.51013-.70813.8656-.04712 1.1173-2.42822 2.8518-3.95166 2.8568-.86328.00282-1.72596.20888-1.87732.51405-.40417.6615-3.2987.6709-3.3009.01075-.00098-.3047-1.01734-.5044-2.28687-.50025-1.52343.00501-2.38757-.24622-2.59227-.70265-.1537-.40575-1.17094-.85936-2.28874-1.05882-1.21948-.19922-1.98254-.60291-1.98401-1.05994-.00171-.50781-.61181-.70898-1.93213-.70459-1.0664.00342-2.38806-.34765-2.94787-.75208-.50915-.40467-1.98303-.75537-3.20178-.75134-1.26967.00415-2.64185-.3468-3.10022-.75159-.45838-.40478-2.28833-.90649-4.01538-1.05322-1.93042-.19678-3.30287-.59852-3.45679-1.05505-.15368-.40577-1.11926-.6565-2.6936-.65137l-2.38672.0078-.22596 8.53224c-.18164 6.55176-.4281 8.83768-1.03344 10.10941-.75708 1.42431-.85022 3.96385-.79419 21.07763.05203 15.84422-.08787 19.65342-.64377 20.46775-.5055.71264-.7517 3.04957-.83814 7.67102-.08886 3.85985-.4342 6.95885-.73754 7.36608-.35412.40737-.69715 4.21727-.8324 9.44837-.18299 6.14526-.52832 9.24426-1.08252 10.5664-.55408 1.3729-.74976 3.6588-.73474 8.2293.01684 5.12904-.13159 6.3484-.74024 6.5536-.60852.25586-.75757 1.272-.74682 4.5729.00772 2.336-.28745 5.2317-.69004 6.4009-.40222 1.2201-.79576 5.08095-.88549 8.6869-.18653 5.079-.38453 6.65394-1.04224 7.3671-.70837.8148-.8562 2.1864-.83533 8.5343.01868 5.6876-.17737 7.8718-.68286 8.5846-.45474.7124-.75186 3.04935-.83914 7.417-.08948 3.65676-.43494 6.70486-.73828 7.1122-.35425.40736-.69666 4.36964-.88217 9.75324-.18177 6.50096-.47681 9.44726-1.03185 10.5155-.50453 1.01746-.75197 2.99866-.74098 6.35036.01038 3.1486-.23584 5.4854-.6897 6.5025-.45349 1.0681-.7987 4.21764-.93567 8.8901-.1394 3.9617-.48315 7.5176-.73595 7.8739-.2527.35635-.65565 1.3733-.85572 2.2881-.14954.8638-.55335 1.62684-.80725 1.6277-.25391.00085-.70923.5609-.96083 1.2727-.25145.7119-.70665 1.272-.96056 1.27283-.35547.00107-.52966 8.83801-.47604 25.19007.07153 21.78576.18432 25.23864.84668 25.8966.45874.50635.76732 1.72424.7727 3.34924.00549 1.67586.31432 2.94452.8241 3.50141.50964.55688.92126 2.18055 1.08082 4.36375.10765 1.8787.57274 4.3147.9824 5.3798.46095 1.1665.72364 3.85716.73426 7.1073.01054 3.19926.32424 5.94065.78544 7.2087.51257 1.4203.7252 4.3142.79333 9.59535.02029 6.19555.17752 7.66775.78837 8.12281.6616.45484.92174 2.33301 1.24718 8.67981.26856 4.46803.7406 9.03698 1.04895 10.15333.30835 1.1162.573 4.3655.58217 7.1585.01158 3.5547.27245 5.636.78343 6.5991.46009.9126.77124 2.89235.77869 5.1775.00918 2.79304.26773 4.21424 1.13675 5.9381.66418 1.2166 1.32776 2.2808 1.58166 2.28005.66027-.0022 2.39357 2.02345 2.396 2.78515.00134.40625.30725.76075.7135.7593.76172-.00246 1.32385 1.062 1.32887 2.5857.0017.5078.2063.9643.51097.96335.25391-.00095.50965.55689.51197 1.26785.00232.7109-.19898 1.27024-.45288 1.271-.25391.0007-.60669.8144-.75598 1.77976-.19958 1.06714-.6543 1.77954-1.06055 1.78074-.40625.0015-.76026.45973-.75843 1.0183.00184.55887-.35217 1.0169-.75842 1.01834-.50781.00171-.76001.51026-.75598 1.729.00342 1.06641.31067 1.82716.7683 2.02881.40687.15085.76417.7085.766 1.26709.0044 1.37109 2.34778 3.5979 3.76966 3.59326 1.32031-.0044 1.82531-.8694 1.81787-3.15454-.00269-.8125.34947-1.82936.75451-2.23706.40466-.45825.75721-1.37353.75464-2.13525-.00525-1.625 3.3339-5.44485 6.02066-6.87549 2.53466-1.3794 13.04616-1.56616 14.01551-.24902.35693.45581.86608.86036 1.1708.85936.30469-.00097 1.01758.60597 1.57849 1.3152 1.4281 1.8235 1.54798 7.4092.18006 8.42944-.4558.35696-1.11353 1.12086-1.41638 1.68042-.30286.55954-1.06229 1.27294-1.72122 1.63084-.6593.3069-1.36805.96926-1.62073 1.3765-.30287.55955-1.16529.8164-2.63807.821-1.52343.00516-2.33508.26175-2.5365.7703-.35217 1.0166-4.05932 1.0288-5.07824.0166-.81531-.8098-4.67542-1.00025-5.79028-.28565-.40552.25515-.60558 1.16995-.5 2.38818.10656 1.52317.41284 2.03003 1.17492 2.12917 1.52454.29954 3.8175 2.67894 3.8219 3.9993.00232.71095.30847 1.167.76563 1.16554.40625-.00124.76269.30226.76391.65771.0011.35545.40956 1.01441.86792 1.41895.50928.45557 1.2229 1.2656 1.63124 1.8738.40807.5571 1.12108 1.1643 1.57848 1.2644.45728.1001 1.01855.9109 1.17395 1.82445.20605.91335.66527 1.57202 1.12231 1.57055.40626-.00146.7627.302.76404.70825.00135.40625.35828.81155.76514 1.01319.40686.15112.76378.60696.76526 1.06396.00134.40625.20569.761.51037.76.25391-.0007 1.62867 1.1118 3.0553 2.5293 1.88505 1.8728 2.95365 2.52955 4.02017 2.5259.8125-.0027 1.72778.34984 2.0846.7549.45865.50644 1.57668.7567 3.76041.7496 1.77734-.00585 3.55577.293 4.11572.6975.55981.3535 2.03409.8057 3.30411.9539 1.21924.1484 2.49047.6521 2.84729 1.0571.45922.6587 1.67845.8071 6.45202.79126 4.21497-.01366 6.04395.18334 6.55323.63894.3568.40525 1.57705.85813 2.69473 1.0068 1.11804.1995 2.08404.5518 2.18657.8562.10243.25343.40797.50636.66188.5056.96484-.00314 4.47937 3.1846 4.99152 4.5032.307.70996.81817 1.7241 1.17535 2.2307.56109.76.46051 1.06496-.85639 2.13576-.86108.66308-2.02722 1.22534-2.58569 1.27807-.6095.00197-3.29785.92481-5.93494 2.05077-5.88283 2.4568-15.1166 5.12795-17.85891 5.137-1.11719.00364-3.29972.3662-4.82169.82835-3.29785.9248-18.68483 1.0769-21.42996.17185-.91517-.30174-3.70947-.69895-6.19837-.843-3.35254-.2429-4.67382-.5432-5.13305-1.2019-.45911-.6079-1.37405-.8589-3.20218-.8528-1.625.0054-2.84497-.29564-3.35425-.75096-.40759-.40504-1.42432-.75708-2.23682-.75439-.81262.00268-2.33728-.3479-3.30346-.75095-1.42384-.60477-3.81116-.7493-10.61576-.6253-7.51562.07547-9.39514-.0708-13.05458-.9729-2.38867-.60154-5.64087-1.2002-7.26661-1.3979-1.62561-.1978-2.94703-.4983-2.94764-.70144-.00073-.20312-2.18542-.50046-4.87744-.69482-4.4192-.29029-7.21376-.73804-10.87344-1.7417l-1.27051-.30054-.18396-9.64844c-.12747-7.87096-.2858-9.69886-.89639-10.05212-.40698-.20191-.76526-1.06394-.76782-1.82569-.00257-.8125-.36109-1.72535-.76856-2.07959-.40735-.35426-.91894-1.5205-1.07483-2.58642-.20666-1.06594-.66748-2.23244-1.02392-2.53589-.40748-.30345-.71497-1.16555-.71741-1.92725-.00269-.8125-.41138-1.573-1.07287-1.97705l-1.06861-.6568 1.06262-1.17138c.91089-.96802 1.06055-1.78101 1.04883-5.33567-.0083-2.5391.2887-4.8765.69214-5.7918.4032-.91526.85242-3.3037.99792-5.3862.19434-2.69214.495-3.9119 1.05262-4.2185 1.11498-.6638 1.04235-7.3162-.12989-8.6328-.45873-.5061-1.17395-1.82424-1.53271-2.83865-.71814-2.13061-.93884-7.513-.22913-7.92145.20264-.1531.55307-1.6778.69992-3.35406.14649-1.77807.5979-3.5061 1.05324-4.01538 1.11316-1.22241 1.09753-5.99586-.02368-7.21116-.50966-.5569-.9214-2.2315-1.0807-4.36385-.15857-1.87855-.52015-3.75625-.82605-4.11075-.25513-.3546-.62024-3.2989-.78345-6.59933-.11218-3.24964-.47754-6.24463-.78333-6.59913-.30603-.40524-.72192-3.34934-.93554-6.54809-.21387-3.24925-.62928-6.04102-.93445-6.19238-.3053-.20217-.66883-2.63857-.88098-5.38013-.21265-2.89394-.67838-5.53334-1.03568-6.09084-.4591-.6078-.71899-2.43504-.72729-4.9742-.00928-2.8438-.21692-4.2144-.77723-4.72036-.56042-.55674-.76806-1.92724-.77771-4.87268-.00976-2.99622-.2174-4.36656-.77795-4.97412-.45886-.50634-1.02441-2.63744-1.28638-5.07414-.26159-2.3352-.72558-4.4666-1.03125-4.7703-.25476-.25304-.51587-2.4359-.52383-4.87346-.06067-2.99609-.26905-4.62034-.77905-5.27904-.61206-.81044-.77161-2.99354-.79798-11.068-.02685-8.1761-.18689-10.4609-.85192-11.9821-.56287-1.2677-.92713-3.95815-1.09339-8.2234-.16455-3.70655-.53137-7.1586-.99206-8.2744-.46119-1.26797-.72413-4.00955-.73841-8.37686-.01343-4.11328-.2251-6.70254-.58179-7.05674-.30578-.3037-.87783-4.4154-1.29959-9.13686-.37085-4.6709-.68835-8.5802-.73938-8.68154-.00024-.05076-.55896-.0997-1.21911-.09763-1.01563.00343-1.2179.30873-1.46582 2.13769-.14856 1.16858-.65271 2.28748-1.05811 2.54274-.55749.3065-.80859 1.17064-.80359 2.6941.0055 1.6759-.19568 2.28587-.75427 2.2877-.50783.0017-.76002.51025-.75624 1.6782.00305.9142-.29785 2.0833-.70239 2.6432-.35364.5597-.85681 1.9833-1.05603 3.152-.14853 1.16857-.65232 2.389-1.05747 2.74584-.40503.35681-.70593 1.52586-.70105 2.99856.005 1.5234-.29602 2.6417-.7517 3.0494-.40528.3568-.75709 1.4752-.75379 2.49085.00342 1.01565-.29712 2.28625-.70154 2.8462-.35365.55981-.85609 2.1864-1.05446 3.65991-.19824 1.47324-.65063 2.8966-1.05578 3.25344-.40515.3061-.70606 1.52585-.70203 2.7446.00488 1.47266-.24646 2.28614-.75354 2.491-.45654.1538-.75879.9165-.75586 1.77976.00269.8125-.2987 1.82924-.65308 2.18594-.40502.3568-.80725 1.5769-1.00671 2.6947-.14893 1.067-.65308 2.1859-1.1095 2.3905-.40539.2552-.75805 1.1197-.75537 1.9322.0033 1.01565-.2489 1.5243-.75671 1.5259-.5586.00184-.75989.5613-.75598 1.78003.00366 1.11727.31103 1.92877.76855 2.07953.40698.20191.7638.60704.76514 1.01331.00122.40623.30701.70993.66247.70873.40638-.00133 1.16968.50404 1.78125 1.1621 1.32496 1.4176 1.48816 4.71804.43274 8.07326-.40222 1.21997-.79785 4.47144-.99194 7.21434-.14183 3.1999-.54076 5.43575-1.04625 6.19905-.50513.81421-.75354 2.49085-.74377 5.48715.01037 3.14853-.18824 4.52024-.745 5.08066-.55688.50964-.75561 1.88159-.74621 4.72534-.04371 2.18384-.33948 4.8762-.74207 5.9949-.40259 1.1185-.90186 3.76096-1.04736 5.8435-.1963 2.08275-.64624 4.2679-.9491 4.8275-.35364.5598-.75171 3.04944-.896 5.48755-.14428 2.48889-.49218 4.77515-.7959 5.08095-.3037.30576-.5526 1.82993-.54748 3.40415.005 1.52355-.29346 3.40355-.69739 4.11575-.40393.76304-.85253 3.3039-1.04822 5.58976-.19541 2.33674-.64451 4.77584-1.04869 5.38654-.45459.7632-.70227 2.64294-.69262 5.5884.00976 2.9962-.23767 4.9774-.74231 5.94394-.40369.76326-.75318 2.64316-.74842 4.06526.00489 1.5234-.29455 3.09887-.74963 3.7097-.45484.6616-.90468 2.8467-1.09999 5.2344-.14453 2.3872-.59497 4.4199-.99988 4.8274-.96167.968-.84472 5.63987.12146 6.04294.40674.15086.76453.86086.76697 1.62256.0028.8633.30933 1.4209 1.02089 1.5708.76233.2007 1.01794.7075 1.02185 1.9263.00342 1.01584.31067 1.7766.76843 1.97824.60999.20116.76685 1.57176.78784 7.97046.02185 6.6524.12734 7.8712.89186 8.7318.76441.8101.92041 1.9268.93555 6.54786.0155 4.72294-.13367 5.6883-.89368 6.19854-1.57019 1.22413-1.05871 2.3396 1.02332 2.3328 1.06653-.0037 2.59108.3469 3.40492.75046.76306.40384 2.38941.75394 3.60816.75 1.42187-.00486 2.54028.34717 3.3042 1.00489.66198.55639 1.57753 1.0105 2.13612 1.00879.50781-.00174.91528.35229.91663.75856.00134.40623.20568.7612.51037.76.66016-.00196 2.64746 2.0735 3.66919 3.8982 1.12354 1.92625 1.18164 4.1606.16724 4.5193-.40576.20456-.75989.6118-.75855 1.01804.00354 1.0664-2.12549 2.24146-4.15686 2.24806-1.37111.0046-1.93043-.1968-1.93226-.7554-.00122-.40624-.30713-.7607-.6626-.7595-.40625.00146-1.11878-.4534-1.62842-1.01026-.50964-.55689-1.32373-1.01124-1.83154-1.00954-.50782.0015-1.11829-.3518-1.32276-.75755-.25525-.40525-1.17114-.91015-2.08569-1.05955-1.52443-.2996-1.62563-.1978-1.6216 1.021.00257.8125.25818 1.31955.76601 1.31785.50781-.00171.76343.50535.76672 1.52099.00379 1.16796.20813 1.52271 1.02063 1.52002.66016-.0022 1.01685.35204 1.01905 1.01221.00183.55859.35876 1.01463.76501 1.01318.40625-.00122.76294.35305.76428.75955.00135.4062.35791.7605.76416.75925.40625-.00145.76294.35278.76429.75905.00134.40623.35791.7607.76416.75926.45715-.00146.9663.40308 1.12023.85964.20472.5073.61304 1.1152 1.0199 1.3171.35608.2019.66237.658.66323.9119.00097.3047.35827.86204.76586 1.2668.40772.45584.76563 1.21634.76722 1.67337.00195.60963.51123 1.01413 1.52746 1.21413 1.01648.25047 1.57666.7058 1.83338 1.5681.15442.65966.61389 1.36914 1.02075 1.52026.40674.15088.71289.60694.71435 1.06394.00135.4063.35804.7605.76429.7593.45703-.00146.91516.35236 1.06884.7581.20447.4058.61194.7598 1.01819.75856.40639-.00146.71205.30224.7134.7085.00134.40624.35815.81154.76501 1.01344.40674.1511.76367.6069.76489.9624.00147.457.81519.8098 2.44092 1.00756 2.43848.29664 6.20229 2.06174 6.20509 2.92504.00086.2539.35706.4558.76331.4546.40625-.00147.76282.3528.76416.75903.00134.40627.30725.76077.71362.75952.76172-.00245 1.32373 1.06201 1.32865 2.53505.00171.5078.30798 1.01463.71472 1.1655.35596.1514.81616 1.11476.92114 2.1299.15711 1.47216.00647 1.98047-.80469 2.3894-.60839.30664-1.2163.7656-1.36781 1.02026-.15149.2544-1.2677.61354-2.43518.76954-1.11658.156-2.08032.5149-2.07947.7688.00403 1.21874-6.49183 2.6113-19.28458 4.0244-2.94421.365-6.95423.9368-8.98414 1.3496-6.24232 1.2393-10.86464.9497-16.40628-.96165-14.28615-4.8794-22.37125-8.10279-22.37405-8.96605-.00306-.9141-2.08791-1.7705-3.00014-1.209-.76001.51025-4.62659-1.60986-4.6294-2.47315-.00172-.50795-.510265-.76015-1.47524-.75695-.8125.0027-1.57532-.2998-1.729-.7056-.15357-.40573-.91687-.8601-1.72998-1.01-.81311-.2004-1.93312-1.06004-2.596324-1.9719-.969726-1.4695-1.124876-2.3323-1.140381-7.0552-.013675-4.1641-.170285-5.4839-.781495-5.98954-1.12012-.91066-1.15076-10.25466-.03723-11.37546.40491-.40775.757445-1.323.755004-2.08475-.002319-.71095.35083-1.42285.756592-1.57665.608524-.25587.757694-1.2212.747684-4.2683-.00745-2.2852-.26758-4.16335-.57276-4.3147-.254636-.20216-.76452-.8606-1.02026-1.4185-.66516-1.47043-1.6355-3.1433-2.34913-3.9536-.30603-.40526-.71509-1.2671-.86975-1.9775-.205445-.7102-.76831-2.02883-1.228394-2.89065-.766846-1.57159-.767456-1.77472-.010746-3.30109.454105-.91552.95459-3.15161 1.0503-4.9292.14636-1.82861.547474-3.40436.90209-3.65946.35486-.20437.75586-1.7798.851805-3.5069.14563-2.03176.446535-3.2007.902955-3.4053.91296-.3584.942626-6.8081.025634-7.66845-1.121094-1.1643-1.974364-13.60351-2.292124-33.0523-.24621-13.15225-.166265-19.75425.234-21.58385.35059-1.4739.6792-9.651.80066-19.09706.11487-11.42664.35144-16.70884.755984-17.21804.404541-.50914.692261-5.7407.807616-17.01506.12279-8.98907.40233-16.65838.65514-17.01458.25256-.40711.65088-2.84606.84546-5.43671.19324-2.99685.59278-5.0802 1.14881-5.84375.555906-.81445.80505-2.28796.79724-4.6748-.00855-2.58985.19153-3.5045.74963-3.7095.55774-.2557.75794-1.17063.749514-3.7097-.007324-2.2345.241576-3.7588.747316-4.4205.40442-.55996.7041-2.0845.74963-3.65896-.00622-1.92969.29456-3.09874 1.002566-4.01514.606944-.7637 1.008919-2.0853 1.005254-3.20264-.00354-1.0664.34827-2.18481.7533-2.54162.40515-.35684.75732-1.37364.75439-2.23694-.002805-.8633.2981-2.03235.7025-2.5923.35364-.5598.85681-1.9835 1.05591-3.20287.1991-1.21948.65259-2.33823 1.05835-2.49193.60876-.2051.70179-2.7953.66309-14.5769-.03821-11.68007.10473-14.5243.7102-15.74513.50476-.91577.7522-2.89707.74304-5.69017-.00854-2.58986.2887-4.8761.69153-5.8931.40344-.9154.90527-2.7452 1.05323-4.06614.14819-1.27006.65148-2.64286 1.00598-2.9488.4557-.40771.75672-1.52586.75245-2.84616-.00415-1.2697.245-2.6924.59864-3.2522.50537-.7633.50352-1.322-.00881-2.6916-.92238-2.536-.85878-14.1149.10193-15.3876.50561-.66173.70337-2.2876.74438-5.2838-.00915-2.7931.23853-4.72363.69361-5.3346.35364-.5598.80469-2.3894 1.0022-4.06604.19787-1.62561.64916-3.35366 1.00317-3.81186.50622-.50967.75342-2.54165.89343-6.3002.08887-3.8598.33704-5.638.7428-5.7917 1.01465-.30797.88269-9.60094-.13611-10.5625-.61157-.6074-.76917-2.2319-.78773-7.8688-.01917-5.8401.1289-7.1609.73766-7.366 1.01429-.40965 1.0027-3.96446-.01623-4.97667-.61133-.55663-.76867-2.07971-.78369-6.65015-.01819-5.53528-.12122-5.99194-1.19068-6.90246-.71288-.60706-1.93261-.90784-3.45643-.95362-1.47266.0049-2.59082-.29626-2.99866-.75195-.50976-.60765-2.38916-.75395-10.86988-.7261-11.78162.03869-15.54078-.30445-15.54395-1.26929-.00171-.50781-.71326-.70862-2.287484-.70349-1.574341.00513-2.387696-.2461-2.592286-.70239-.153686-.40588-.91711-.91126-1.7301-1.06092-.81311-.14966-1.57654-.65503-1.730104-1.06079-.153686-.40577-.611816-.70887-1.068846-.7074-.40625.00135-.76282-.35302-.76416-.75927-.00147-.45703-.45948-.76014-1.06898-.75818-.55859.00183-1.62659-.45178-2.339355-1.00806-.712765-.55626-1.628415-1.01026-1.983885-1.00916-1.21875.00403-1.73279-1.87316-1.74634-6.03735-.011596-3.50403.13831-4.26635.99927-4.9801.860716-.76465 1.01062-1.52685.996824-5.74182-.010864-3.30078.18615-5.18048.691886-5.84235.454835-.66162.75183-2.99878.84058-6.9093.09094-3.25038.436765-6.19702.74011-6.60425.303344-.40723.699585-3.45559.89172-6.80789.23938-4.41894.53809-6.24804 1.04456-6.656.60803-.45899.75574-1.8816.74072-6.45204-.01416-4.31652.18335-6.0437.689455-6.5532.455325-.5093.804199-2.54176.944215-6.3003.193114-3.0475.43603-6.40003.6355-7.51783.39892-2.23584-.628665-5.88895-1.69507-5.88541-.35547.0011-.66176-.45498-.66359-1.01358-.00183-.55858-.358766-1.0144-.76514-1.01306-.40625.00135-.76269-.30224-.763914-.65772-.001096-.35546-.409546-1.01427-.918826-1.46972-1.37524-1.26501-2.650876-3.08898-2.653195-3.79993-.001221-.35545-.306885-.6593-.713135-.65795-.76172.00256-4.383545-4.91163-4.38696-5.97803-.00098-.30469-.306766-.60827-.662234-.60717-.40625.00133-1.273196-1.11305-1.937996-2.53285-.664795-1.36892-1.53174-2.4833-1.88733-2.53285-.30469.00096-.61035-.30275-.611694-.709-.003052-.91418-2.605956-4.86658-3.164551-4.86474-.203125.00061-.407225-.30359-.408569-.70984-.001346-.40625-.358156-.81128-.765016-1.01306-.40686-.15101-.76465-.86086-.76697-1.57178-.002926-.91408-.25805-1.26868-1.01977-1.26612-.6095.00196-1.01685-.35229-1.018434-.80932-.001346-.40624-.359131-1.11597-.766726-1.521-.40771-.45569-.76599-1.31774-.76831-2.02868-.002196-.66028-.308714-1.2179-.66418-1.21668-.35547.0011-.91603-.60644-1.2743-1.41772-1.32947-2.78882-1.89087-3.65026-2.50025-3.6482-.355466.0011-.661984-.55652-.66418-1.21666-.0022-.66017-.359865-1.3191-.766725-1.521-.40686-.151-.763795-.60694-.765135-1.0132-.001345-.40624-.30786-.96374-.664064-1.16576-.864868-.50501-2.907226-3.84998-2.910156-4.71326-.00122-.40625-.308106-1.06543-.7157-1.47034-1.478396-1.7218-1.89673-5.42774-1.30604-11.11737.395145-3.40381.844974-5.58887 1.25037-5.84411.506835-.3064.654174-1.83046.64099-5.84229-.011474-3.50391.23352-6.24707.68579-7.72119.4021-1.271.850588-3.8623.996828-5.74182.145142-2.18408.546022-3.81056 1.052002-4.37086.455444-.50927.806885-1.72924.80371-2.69408-.003295-1.01575.34863-2.08325.75391-2.44007.557004-.45885.75622-1.67835.7467-4.57299-.0094-2.84388.18994-4.01246.697145-4.21729.405639-.15369.756835-1.4751.953491-3.45642.146484-1.77783.547729-3.30261.953124-3.55785.86157-.56154.84497-5.6398-.02197-6.7034-.96851-1.11403-.93348-5.93852.02514-7.82072.50488-.91578.8551-2.54188.85156-3.6084-.00427-1.32031.24695-2.13368.75403-2.3385.40576-.15368.75976-.61182.758665-.96728-.001345-.40626.453369-1.11878 1.010255-1.62842.55688-.50965 1.01184-1.17138 1.01074-1.47608-.000976-.3047.65601-1.3224 1.516244-2.23938 1.315552-1.47705 1.516602-2.08716 1.508301-4.62634-.006595-2.03125.243405-3.19995.749875-3.60791.81055-.66297 1.05652-3.05054.29468-3.04797-.253906.00085-.71326-.70862-1.02051-1.52015-.25683-.86255-.76672-1.52099-1.02063-1.52026-.8125.00269-.669065-2.68921.19043-3.86011.40454-.50915.75525-1.98303.7511-3.25256-.00427-1.26965.295655-2.74329.700074-3.30322.353636-.5597.857786-1.72937 1.00708-2.64406.200316-.86389.705326-1.72888 1.110966-1.88257.55798-.20496.70617-1.47497.69116-6.04553-.01392-4.26563.18347-5.99304.73962-6.75659.40454-.50904.75513-1.98291.75122-3.20179-.00806-2.43753 1.74975-8.43582 2.86267-9.75979.35412-.40735.65478-1.6272.651486-2.64295-.003296-1.01562.297974-2.03222.652834-2.23645.405515-.20447.85901-1.32324 1.00793-2.39026.199465-1.11779.551516-2.13464.804934-2.28771.253296-.20398.758786-.91663 1.010496-1.57776.30237-.71192.75635-1.62744 1.00891-2.03455.25257-.4071.605716-1.11914.80762-1.52612.40259-1.11865 1.41309-2.69617 2.27283-3.76538 1.82092-2.24048 4.55456-4.89014 5.062375-4.89185.253905-.00085.760135-.45947 1.113895-1.01941.353635-.55969 1.16467-1.01941 1.824826-1.0216.660154-.0022 1.522214-.36048 1.927124-.76807.45593-.40772 1.5719-.76685 2.53674-.77002 1.06641-.00354 1.878055-.31079 2.029056-.71765.151004-.40674 1.215698-.91797 2.383179-1.07422 1.116575-.20691 2.384521-.71887 2.78968-1.07568.354125-.40735 1.267215-.71509 2.028931-.71753.761719-.00256 1.827024-.36146 2.333494-.76941.55725-.40808 1.62256-.76709 2.43506-.76978.76184-.00244 2.28369-.46447 3.297486-1.02637 1.064694-.56225 2.281984-1.02331 2.789794-1.0249.45703-.00158.964234-.2063 1.11572-.46069.15149-.25452 1.92664-.97119 3.95569-1.63806 2.02918-.66675 4.10828-1.58777 4.61438-2.09729.50623-.50952 1.16516-.91785 1.52063-.91907.35547-.00122 1.36865-.71545 2.27991-1.58167 1.3667-1.37572 1.97546-1.58093 4.41296-1.58886 2.58985-.05933 2.79273-.11072 2.78907-1.22791-.00208-.66015.45227-1.47412 1.00964-1.83154.55749-.3573 1.01269-.91736 1.01147-1.27295-.00122-.35548.35327-.66127.75965-.66261.45703-.00159.76025-.4596.75757-1.2721-.00232-.71093.30053-1.27051.60522-1.27148.71082-.0531 2.63159-2.80176 3.18456-4.53017.15027-.60986.55505-1.06836.80895-1.06921.25391-.00086.45557-.4585.45374-1.01709-.00183-.5586.19971-1.01636.45361-1.01709.25391-.00086.9115-.81555 1.5177-1.78235.65662-1.11951 1.41614-1.78223 2.0763-1.7843.55859-.00183 1.16675-.35938 1.31775-.76612.5039-1.22045 1.11609-.40991.81604 1.06373-.19934 1.16882-.09742 1.27001 1.22253 1.1134l1.47217-.15735-.17236-6.09338c-.16566-4.06214-.47816-6.44788-.93763-7.20814-.40832-.60803-.71716-1.87658-.72009-2.79064-.00317-.96485-.31189-2.18274-.71997-2.73999-.4082-.557255-.82019-2.282474-.92664-3.80579-.16052-2.48779-.26293-2.74133-1.43139-2.88977-.66052-.09949-1.67749-.50232-2.23755-.90686-.55994-.40442-1.32263-.706666-1.6781-.705445-.35547.001095-1.52539-.60437-2.64539-1.413205-1.52673-1.01062-2.03723-1.821536-2.29577-3.24268-.20679-1.11645-.66675-1.97827-1.22583-2.12878-.91516-.30176-2.6565-4.81568-2.66382-7.05017-.00257-.76172-.30921-1.37012-.66468-1.3689-1.21887.003906-2.39587-2.7345-2.09814-4.86841.54627-3.75977 2.11243-6.2533 4.59741-7.277106 1.47071-.614134 1.67284-.919564 1.66698-2.697029-.00342-1.066405-.41467-2.588501-.92481-3.297729-.76586-1.216431-.87243-2.739506-.80786-14.01355.01648-10.461426.16102-12.848633.81812-13.815796.45471-.712402.807-1.678467.8053-2.18628-.00183-.558593.35132-1.27063.75647-1.62744.40503-.356934.75854-.96753.7572-1.37378-.00122-.35547.35278-.8136.75854-.967285.40564-.204468.75904-.865845.75684-1.526001-.0022-.660156.45227-1.474244 1.00965-1.831544.55737-.3573 1.01183-1.171264 1.00976-1.78064-.00366-1.117186 2.12085-3.714232 3.03491-3.71716.30469-.00098.50671-.3064.50549-.71265-.00134-.40625.35279-.813597.7583-1.018065.40577-.153685.75977-.61206.75843-1.01831-.0033-1.015625 2.42492-3.86731 3.28821-3.870117.40625-.001343 1.46997-.817505 2.43188-1.785523.96167-.968017 1.97461-1.783815 2.33008-1.785035.30469-.000976.55737-.3573.55603-.76355-.00134-.40637.25146-.762694.55615-.76367.30481-.000977 1.11585-.460694 1.82495-1.021607.70911-.560913 1.82471-1.021607 2.43408-1.02356.6095-.002075 1.42089-.360233 1.77501-.767582.40454-.509155 1.57166-.766845 3.34912-.772705 2.53907-.008301 2.74195-.110596 2.73841-1.177124-.0022-.660156.24927-1.422729.60364-1.779297.86047-.866089 8.3767-.789185 10.41088.118165zm-72.52007 293.71427c.00208.66014-.351195 1.32141-.75671 1.52588-.507205.20483-.75855.9674-.75354 2.49084.00439 1.37122-.29663 2.48938-.75232 2.8971-.40503.35682-.757815 1.17052-.75574 1.83082.0022.66014-.45166 1.67723-1.00842 2.23766-.556765.56042-1.010744 1.47594-1.009035 1.98388.001831.5586-.250125 1.16883-.50354 1.32203-.3042.15333-.505005.86486-.502805 1.52503.00451 1.37108 1.428586 2.02672 3.35681 1.56334 1.01489-.25732 1.216795-.6134 1.2113-2.28918-.00415-1.26953.34815-2.23572 1.00635-2.84729.75928-.71337 1.010376-1.57752 1.003906-3.55797-.005856-1.77748.244384-2.89552.750984-3.30336.50647-.40796.75659-1.5769.74988-3.60814-.00855-2.64076-.11133-2.99586-1.0254-2.99293-.71106.00243-1.01453.35888-1.01172 1.22229zM292.0566 823.42633c-.151.40674-.75927.76417-1.31786.76587-.55859.00195-1.92676.9204-2.98964 1.9905-1.5692 1.57957-2.02318 2.4951-2.32106 4.5781-.19861 1.3718-.19251 3.25074.01343 4.1133l.3605 1.52245 7.51587-.02465c5.78919-.0188 7.61694-.17726 8.07214-.7373.35412-.40773 1.11438-.8672 1.72327-1.0215 1.82678-.46314 2.8848-3.0056 2.87185-6.96655-.00915-2.79322-.1638-3.50365-.77322-3.50171-.40625.00122-.76294-.35304-.76428-.75928-.00195-.60936-1.0182-.7583-6.04565-.74196-4.87513.0161-6.09339.1724-6.34535.78273zm-111.38408 41.49982c.00463 1.42185 1.68495 2.7876 3.41163 2.78175 1.47266-.00465 1.6753-.1577 1.67163-1.2749-.00305-.9141-.25818-1.2688-1.01989-1.2661-.5586.0017-1.01649-.25076-1.01734-.50467-.00097-.30469-.71265-.50537-1.52515-.50268-1.01564.00315-1.5226.25878-1.52088.7666z"/>
</svg>