<svg xmlns="http://www.w3.org/2000/svg" fill="#FFF" viewBox="0 0 484.228 484.228">
  <path d="M484.06 210.989L438.305 52.856c-.328-1.133-1.112-2.079-2.164-2.611-1.054-.533-2.278-.605-3.385-.197l-12.411 4.561-1.982-6.582c-.339-1.127-1.131-2.063-2.186-2.584-1.055-.522-2.279-.583-3.381-.168-29.582 11.134-44.034 14.763-107.786 22.14-40.168 4.647-56.44 21.963-62.954 33.842-6.469-11.884-22.678-29.195-62.839-33.842-63.753-7.377-78.205-11.006-107.787-22.14-1.101-.415-2.326-.354-3.381.168-1.055.521-1.847 1.457-2.186 2.584l-1.976 6.562-12.423-4.543c-1.105-.403-2.332-.331-3.382.201-1.051.533-1.833 1.478-2.161 2.609L.168 210.989c-.638 2.207.593 4.521 2.779 5.226l141.114 45.496-59.117 47.54c-1.004.807-1.587 2.025-1.587 3.312v32.49c0 1.709 1.023 3.252 2.599 3.916 1.574.664 3.394.32 4.617-.872l26.274-25.606c4.096-3.976 10.665-3.88 14.64.216l5.087 5.24c1.926 1.983 2.964 4.599 2.923 7.364-.041 2.765-1.156 5.348-3.15 7.284l-51.71 50.528c-.818.799-1.279 1.896-1.279 3.04v38.814c0 1.698 1.011 3.233 2.569 3.904.542.233 1.113.346 1.68.346 1.066 0 2.117-.401 2.922-1.163l151.508-143.381 151.74 143.383c.805.761 1.855 1.161 2.92 1.161.567 0 1.14-.114 1.681-.347 1.559-.671 2.568-2.206 2.568-3.903v-38.814c0-1.144-.461-2.24-1.279-3.04l-51.722-50.538c-1.983-1.926-3.099-4.509-3.14-7.274-.041-2.765.997-5.38 2.923-7.364l5.087-5.24c3.976-4.096 10.542-4.193 14.634-.223l26.281 25.613c1.224 1.192 3.045 1.536 4.617.872 1.575-.664 2.599-2.207 2.599-3.916v-32.49c0-1.286-.582-2.503-1.583-3.309l-59.081-47.609 140.999-45.429c2.186-.706 3.416-3.02 2.779-5.227zm-94.315-100.116h38.663l2.408 8h-6.571c-2.348 0-4.25 1.903-4.25 4.25s1.902 4.25 4.25 4.25h9.131l12.796 42.5h-42.927c-2.348 0-4.25 1.903-4.25 4.25s1.902 4.25 4.25 4.25h45.485l4.066 13.506c-21.982 7.912-73.793 23.604-147.522 27.514-32.093 1.702-48.683 13.718-56.95 23.5-.729.862-1.407 1.723-2.04 2.577v-85.096h63.461c2.348 0 4.25-1.903 4.25-4.25s-1.902-4.25-4.25-4.25h-63.461v-15.438c.561-3.152 7.102-31.816 59.703-37.902 61.527-7.119 83.698-13.038 111.668-23.373l8.193 27.212h-36.104c-2.348 0-4.25 1.903-4.25 4.25.001 2.347 1.904 4.25 4.251 4.25zm-356.505 75h26.505c2.348 0 4.25-1.903 4.25-4.25s-1.902-4.25-4.25-4.25H35.799l7.376-24.5h62.07c2.348 0 4.25-1.903 4.25-4.25s-1.902-4.25-4.25-4.25h-59.51l4.968-16.5h23.043c2.348 0 4.25-1.903 4.25-4.25s-1.902-4.25-4.25-4.25H53.261L66.753 74.56c29.514 10.936 51.988 17.089 111.488 23.974 52.74 6.103 59.033 34.906 59.543 37.888v48.952h-15.039c-2.348 0-4.25 1.903-4.25 4.25s1.902 4.25 4.25 4.25h15.039v5.5h-34.039c-2.348 0-4.25 1.903-4.25 4.25s1.902 4.25 4.25 4.25h34.039v37.507c-.609-.823-1.256-1.65-1.954-2.48-8.23-9.784-24.779-21.805-56.876-23.507-73.731-3.91-125.541-19.602-147.522-27.514l1.808-6.007zM305.987 75.857c61.594-7.127 77.914-10.836 105.544-21.039l3.669 12.187c-28.124 10.427-48.897 15.992-110.19 23.084-33.354 3.859-50.23 16.454-58.727 27.417v-3.748c.568-3.174 7.127-31.817 59.704-37.901zM72.697 54.819c27.63 10.203 43.95 13.912 105.545 21.039 52.74 6.102 59.033 34.906 59.543 37.888v3.671c-8.477-10.944-25.307-23.479-58.566-27.327-59.225-6.853-80.292-12.641-110.01-23.685l3.488-11.586zm-19.875 4.774l8.611 3.149L22.139 193.26c-.645 2.141.479 4.415 2.572 5.203 19.769 7.441 74.328 25.204 153.794 29.418 52.999 2.811 58.835 34.556 59.279 37.671v17.445L9.48 209.39 52.822 59.593zm39.036 338.358l50.42-49.268c3.613-3.507 5.644-8.211 5.719-13.246.075-5.035-1.816-9.798-5.322-13.411l-5.087-5.24c-7.239-7.459-19.198-7.637-26.665-.389l-19.064 18.579v-20.378l61.886-49.766 17.631 5.685-19.632 19.598c-1.661 1.658-1.663 4.349-.005 6.01.83.831 1.919 1.247 3.008 1.247 1.086 0 2.173-.414 3.003-1.242l22.721-22.682 23.368 7.534-42.849 42.886c-1.658 1.661-1.657 4.352.003 6.01.83.829 1.917 1.244 3.004 1.244 1.088 0 2.177-.415 3.007-1.246l45.923-45.964 20.979 6.764L91.858 425.103v-27.152zm300.587-83.356v20.381l-19.071-18.586c-7.459-7.24-19.418-7.063-26.659.395l-5.087 5.24c-3.507 3.613-5.398 8.376-5.322 13.411.075 5.035 2.106 9.739 5.708 13.236l50.432 49.278v27.162L250.173 290.676l26.105-8.411 26.712 26.712c.829.83 1.917 1.245 3.005 1.245s2.176-.415 3.005-1.245c1.66-1.66 1.66-4.351 0-6.011l-23.63-23.63 45.233-14.574 61.842 49.833zm-146.161-31.597v-17.436c.469-3.178 6.484-34.874 59.44-37.682 79.464-4.214 134.024-21.977 153.794-29.418 2.093-.788 3.217-3.062 2.572-5.203L422.8 62.762l8.607-3.163 43.341 149.79-228.464 73.609z" />
  <path d="M148.245 119.373h-33.5c-2.348 0-4.25 1.903-4.25 4.25s1.902 4.25 4.25 4.25h33.5c2.348 0 4.25-1.903 4.25-4.25s-1.902-4.25-4.25-4.25z" />
</svg>