<svg xmlns="http://www.w3.org/2000/svg" fill="#FFF" viewBox="0 0 463 463">
  <path d="M395.195 67.805C351.471 24.08 293.336 0 231.5 0S111.529 24.08 67.805 67.805 0 169.664 0 231.5s24.08 119.971 67.805 163.695S169.664 463 231.5 463s119.971-24.08 163.695-67.805S463 293.336 463 231.5s-24.08-119.971-67.805-163.695zM99.929 306.214c0-5.329-2.102-23.063-5.531-51.555-3.519-29.236-7.898-65.623-7.898-76.016 0-41.044 49.1-50.384 66.806-52.401l11.243 67.455-14.063 4.688c-3.134 1.044-5.215 4.016-5.125 7.318l2.047 75.714-17.513 29.657c-2.106 3.566-.922 8.166 2.645 10.271.719.424 1.479.715 2.253.88-.035.069-.071.139-.106.208-9 17.454-9.449 21.594-9.641 23.363-.593 5.468 2.241 10.542 7.221 12.928 1.832.877 3.765 1.305 5.671 1.305 3.134 0 6.199-1.156 8.635-3.372l2.734-2.046 2.184 78.171c-16.665-6.621-32.483-15.333-47.131-26.006-2.859-59.454-4.431-95.161-4.431-100.562zM391.03 180.327c-14.007-22.916-33.326-39.111-42.332-45.917l13.331-13.331c9.734 6.813 31.762 25.059 37.75 54.042-2.138 1.367-5.118 3.187-8.749 5.206zm-58.298-29.952l5.24-5.24c6.792 4.981 25.967 20.17 39.598 41.939-13.783 6.179-31.512 11.894-49.356 11.441v-11.973c0-7.822-5.867-14.286-13.429-15.259v-22.571l10.24 3.463c2.701.914 5.689.216 7.707-1.8zm-32.946 27.649c-1.061 2.563-8.977 15.498-67.661 68.202-24.326 21.847-48.456 42.519-59.183 51.644l-10.266-12.413c34.264-61.856 88.317-107.213 88.972-107.759 3.187-2.646 3.626-7.374.98-10.561-2.646-3.188-7.375-3.626-10.561-.98-.894.742-9.298 7.78-21.327 19.74-5.814-.225-21.809-.332-41.653 3.786l-11.003-66.018c8.559-1.821 27.92-4.667 65.345-4.667 32.664 0 57.651 12.07 66.357 16.912v42.114zM160.25 327.684l-17.949 13.433c1.198-2.732 3.001-6.547 5.715-11.81 2.8-5.43 4.925-11.138 6.318-16.966l2.75-10.107 6.825 8.252-3.659 17.198zm.254-116.828l14.589-4.863c11.856-3.005 22.708-4.307 30.976-4.836-13.879 15.092-29.851 34.416-44.294 56.699l-1.271-47zm224.085 173.733C343.697 425.48 289.329 448 231.5 448c-22.328 0-44.135-3.371-64.855-9.847l-2.641-94.543 7.49-5.606c1.455-1.088 2.464-2.667 2.842-4.443l4.466-20.99c7.702-6.521 36.935-31.386 65.861-57.447 47.679-42.956 62.935-60.551 67.819-68.98h.331c.221 0 .4.179.4.4V205.5c0 3.806 2.851 7.009 6.632 7.45 3.473.405 6.939.592 10.388.592 41.821-.002 80.412-27.555 82.163-28.823 2.252-1.63 3.418-4.374 3.028-7.126-6.739-47.625-48.983-71.646-50.778-72.646-2.928-1.629-6.582-1.12-8.951 1.25l-30.278 30.277-10.633-3.596v-1.235c0-2.508-1.253-4.85-3.34-6.24-1.309-.874-32.624-21.403-78.015-21.403-50.354 0-69.826 4.943-75.247 6.743-7.306.268-26.939 2.528-45.39 10.683-27.014 11.94-41.292 31.725-41.292 57.217 0 11.293 4.253 46.631 8.005 77.809 2.666 22.154 5.423 45.063 5.423 49.763 0 6.469 1.941 48.761 3.813 88.045-3.528-3.103-6.979-6.318-10.331-9.67C37.52 343.697 15 289.329 15 231.5S37.52 119.303 78.411 78.411C119.303 37.52 173.671 15 231.5 15s112.197 22.52 153.089 63.411C425.48 119.303 448 173.671 448 231.5s-22.52 112.197-63.411 153.089z" />
</svg>